<mxfile modified="2023-08-08T08:01:44.000Z" host="app.diagrams.net" agent="Mozilla/5.0 (Windows NT 10.0; Win64; x64) AppleWebKit/537.36 (KHTML, like Gecko) Chrome/115.0.0.0 Safari/537.36 Edg/115.0.1901.188" etag="f-TmEY_NwPalRDN55Y1N" version="21.6.6" type="github">
  <diagram id="f106602c-feb2-e66a-4537-3a34d633f6aa" name="Page-1">
    <mxGraphModel dx="1434" dy="788" grid="1" gridSize="10" guides="1" tooltips="1" connect="1" arrows="1" fold="1" page="1" pageScale="1" pageWidth="1169" pageHeight="827" background="none" math="0" shadow="0">
      <root>
        <mxCell id="0" />
        <mxCell id="1" parent="0" />
        <mxCell id="ejGAQnooB_EAoYQokwm5-535" value="" style="rounded=1;whiteSpace=wrap;html=1;fillColor=default;strokeColor=#080807;dashed=1;dashPattern=1 1;gradientColor=#12FF12;opacity=10;strokeWidth=4;glass=0;shadow=0;sketch=1;curveFitting=1;jiggle=2;" vertex="1" parent="1">
          <mxGeometry x="320" y="150" width="710" height="560" as="geometry" />
        </mxCell>
        <mxCell id="2" value="Pega PreProd Intrastructure" style="fillColor=#4DA1F5;strokeColor=none;shadow=1;gradientColor=none;fontSize=14;align=left;spacingLeft=50;fontColor=#ffffff;html=1;rounded=1;" parent="1" vertex="1">
          <mxGeometry x="320" y="110" width="670" height="40" as="geometry" />
        </mxCell>
        <mxCell id="495" value="Clients" style="strokeColor=#dddddd;fillColor=#ffffff;shadow=1;strokeWidth=1;rounded=1;absoluteArcSize=1;arcSize=2;labelPosition=center;verticalLabelPosition=middle;align=center;verticalAlign=bottom;spacingLeft=0;fontColor=#999999;fontSize=12;whiteSpace=wrap;spacingBottom=2;html=1;" parent="1" vertex="1">
          <mxGeometry x="70" y="247.5" width="70" height="85" as="geometry" />
        </mxCell>
        <mxCell id="496" value="" style="dashed=0;connectable=0;html=1;fillColor=#757575;strokeColor=none;shape=mxgraph.gcp2.laptop;part=1;rounded=1;" parent="495" vertex="1">
          <mxGeometry x="0.5" width="50" height="33" relative="1" as="geometry">
            <mxPoint x="-25" y="18.5" as="offset" />
          </mxGeometry>
        </mxCell>
        <mxCell id="503" value="" style="strokeColor=#dddddd;fillColor=#ffffff;shadow=1;strokeWidth=1;rounded=1;absoluteArcSize=1;arcSize=2;fontSize=10;fontColor=#999999;align=left;html=1;" parent="1" vertex="1">
          <mxGeometry x="1060" y="300" width="121" height="90" as="geometry" />
        </mxCell>
        <mxCell id="511" value="Database" style="rounded=1;absoluteArcSize=1;arcSize=2;html=1;strokeColor=none;gradientColor=none;shadow=0;dashed=0;strokeColor=none;fontSize=12;fontColor=#9E9E9E;align=left;verticalAlign=top;spacing=10;spacingTop=-4;fillColor=#E1F5FE;" parent="503" vertex="1">
          <mxGeometry x="-9" y="-30" width="130" height="120" as="geometry" />
        </mxCell>
        <mxCell id="504" value="" style="dashed=0;connectable=0;html=1;fillColor=#5184F3;strokeColor=none;shape=mxgraph.gcp2.hexIcon;prIcon=cloud_sql;part=1;labelPosition=right;verticalLabelPosition=middle;align=left;verticalAlign=middle;spacingLeft=5;fontColor=#999999;fontSize=12;rounded=1;" parent="503" vertex="1">
          <mxGeometry y="0.5" width="44" height="39" relative="1" as="geometry">
            <mxPoint x="5" y="-19.5" as="offset" />
          </mxGeometry>
        </mxCell>
        <mxCell id="497" value="" style="strokeColor=#dddddd;fillColor=#ffffff;shadow=1;strokeWidth=1;rounded=1;absoluteArcSize=1;arcSize=2;fontSize=10;fontColor=#999999;align=left;html=1;" parent="1" vertex="1">
          <mxGeometry x="359" y="300" width="180.5" height="114" as="geometry" />
        </mxCell>
        <mxCell id="ejGAQnooB_EAoYQokwm5-532" value="" style="points=[[0,0,0],[0.25,0,0],[0.5,0,0],[0.75,0,0],[1,0,0],[1,0.25,0],[1,0.5,0],[1,0.75,0],[1,1,0],[0.75,1,0],[0.5,1,0],[0.25,1,0],[0,1,0],[0,0.75,0],[0,0.5,0],[0,0.25,0]];rounded=1;absoluteArcSize=1;arcSize=2;html=1;strokeColor=none;gradientColor=none;shadow=0;dashed=0;fontSize=12;fontColor=#9E9E9E;align=left;verticalAlign=top;spacing=10;spacingTop=-4;whiteSpace=wrap;fillColor=#F3E5F5;" vertex="1" parent="497">
          <mxGeometry x="-19.5" y="-16" width="200" height="130" as="geometry" />
        </mxCell>
        <mxCell id="498" value="" style="dashed=0;connectable=0;html=1;fillColor=#757575;strokeColor=none;shape=mxgraph.gcp2.frontend_platform_services;part=1;labelPosition=right;verticalLabelPosition=middle;align=left;verticalAlign=middle;spacingLeft=5;fontColor=#000000;fontSize=12;rounded=1;" parent="497" vertex="1">
          <mxGeometry y="0.5" width="32" height="32" relative="1" as="geometry">
            <mxPoint x="5" y="-16" as="offset" />
          </mxGeometry>
        </mxCell>
        <mxCell id="ejGAQnooB_EAoYQokwm5-529" value="2 WebUser Node&lt;br&gt;16 GB / 4 CPU / 100GB Stroge" style="shape=note2;boundedLbl=1;whiteSpace=wrap;html=1;size=25;verticalAlign=top;align=center;rounded=1;" vertex="1" parent="497">
          <mxGeometry x="41" y="12" width="120" height="80" as="geometry" />
        </mxCell>
        <mxCell id="9KAmWLg63ur0Nj4LG1KI-530" value="" style="points=[[0,0,0],[0.25,0,0],[0.5,0,0],[0.75,0,0],[1,0,0],[1,0.25,0],[1,0.5,0],[1,0.75,0],[1,1,0],[0.75,1,0],[0.5,1,0],[0.25,1,0],[0,1,0],[0,0.75,0],[0,0.5,0],[0,0.25,0]];rounded=1;absoluteArcSize=1;arcSize=2;html=1;strokeColor=none;gradientColor=none;shadow=0;dashed=0;fontSize=12;fontColor=#9E9E9E;align=left;verticalAlign=top;spacing=10;spacingTop=-4;whiteSpace=wrap;fillColor=#F3E5F5;" parent="1" vertex="1">
          <mxGeometry x="574" y="170" width="200" height="130" as="geometry" />
        </mxCell>
        <mxCell id="9KAmWLg63ur0Nj4LG1KI-533" value="" style="strokeColor=#dddddd;fillColor=#ffffff;shadow=1;strokeWidth=1;rounded=1;absoluteArcSize=1;arcSize=2;fontSize=10;fontColor=#999999;align=left;html=1;" parent="1" vertex="1">
          <mxGeometry x="585" y="190" width="171" height="80" as="geometry" />
        </mxCell>
        <mxCell id="9KAmWLg63ur0Nj4LG1KI-534" value="&lt;font color=&quot;#000000&quot;&gt;Background&lt;/font&gt;" style="dashed=0;connectable=0;html=1;fillColor=#5184F3;strokeColor=none;shape=mxgraph.gcp2.hexIcon;prIcon=process;part=1;labelPosition=right;verticalLabelPosition=middle;align=left;verticalAlign=middle;spacingLeft=5;fontColor=#999999;fontSize=12;rounded=1;" parent="9KAmWLg63ur0Nj4LG1KI-533" vertex="1">
          <mxGeometry y="0.5" width="44" height="39" relative="1" as="geometry">
            <mxPoint x="5" y="-19.5" as="offset" />
          </mxGeometry>
        </mxCell>
        <mxCell id="ejGAQnooB_EAoYQokwm5-524" value="3 Node Bacground&lt;br&gt;16 GB / 4 CPU / 100GB Stroge" style="shape=note2;boundedLbl=1;whiteSpace=wrap;html=1;size=25;verticalAlign=top;align=center;rounded=1;" vertex="1" parent="9KAmWLg63ur0Nj4LG1KI-533">
          <mxGeometry x="51" width="120" height="80" as="geometry" />
        </mxCell>
        <mxCell id="9KAmWLg63ur0Nj4LG1KI-536" style="edgeStyle=orthogonalEdgeStyle;rounded=1;html=1;labelBackgroundColor=none;startArrow=blockThin;startFill=1;endArrow=blockThin;endFill=1;jettySize=auto;orthogonalLoop=1;strokeColor=#4284F3;strokeWidth=2;fontSize=10;fontColor=#999999;align=center;dashed=0;endSize=4;startSize=4;entryX=1.006;entryY=0.428;entryDx=0;entryDy=0;entryPerimeter=0;exitX=0;exitY=0.5;exitDx=0;exitDy=0;" parent="1" source="511" target="ejGAQnooB_EAoYQokwm5-535" edge="1">
          <mxGeometry relative="1" as="geometry">
            <mxPoint x="1110" y="200" as="sourcePoint" />
            <mxPoint x="819" y="237" as="targetPoint" />
            <Array as="points">
              <mxPoint x="1010" y="330" />
              <mxPoint x="1010" y="334" />
            </Array>
          </mxGeometry>
        </mxCell>
        <mxCell id="9KAmWLg63ur0Nj4LG1KI-538" style="edgeStyle=orthogonalEdgeStyle;rounded=1;html=1;labelBackgroundColor=none;startArrow=blockThin;startFill=1;endArrow=blockThin;endFill=1;jettySize=auto;orthogonalLoop=1;strokeColor=#4284F3;strokeWidth=2;fontSize=10;fontColor=#999999;align=center;dashed=0;endSize=4;startSize=4;entryX=0.5;entryY=0;entryDx=0;entryDy=0;entryPerimeter=0;" parent="1" source="9KAmWLg63ur0Nj4LG1KI-530" target="ejGAQnooB_EAoYQokwm5-532" edge="1">
          <mxGeometry relative="1" as="geometry">
            <mxPoint x="460" y="202" as="sourcePoint" />
            <mxPoint x="460" y="273" as="targetPoint" />
          </mxGeometry>
        </mxCell>
        <mxCell id="ejGAQnooB_EAoYQokwm5-517" value="" style="edgeStyle=orthogonalEdgeStyle;rounded=1;html=1;labelBackgroundColor=none;startArrow=blockThin;startFill=1;endArrow=blockThin;endFill=1;jettySize=auto;orthogonalLoop=1;strokeColor=#4284F3;strokeWidth=2;fontSize=10;fontColor=#999999;align=center;dashed=0;endSize=4;startSize=4;" edge="1" parent="1" source="495" target="ejGAQnooB_EAoYQokwm5-516">
          <mxGeometry relative="1" as="geometry">
            <mxPoint x="160" y="330" as="sourcePoint" />
            <mxPoint x="359" y="385" as="targetPoint" />
          </mxGeometry>
        </mxCell>
        <mxCell id="ejGAQnooB_EAoYQokwm5-518" value="Load Balancer&lt;br&gt;" style="edgeLabel;html=1;align=center;verticalAlign=middle;resizable=0;points=[];rounded=1;" vertex="1" connectable="0" parent="ejGAQnooB_EAoYQokwm5-517">
          <mxGeometry x="-0.2283" relative="1" as="geometry">
            <mxPoint x="65" y="8" as="offset" />
          </mxGeometry>
        </mxCell>
        <mxCell id="ejGAQnooB_EAoYQokwm5-516" value="" style="outlineConnect=0;dashed=0;verticalLabelPosition=bottom;verticalAlign=top;align=center;html=1;shape=mxgraph.aws3.classic_load_balancer;fillColor=#F58534;gradientColor=none;rounded=1;" vertex="1" parent="1">
          <mxGeometry x="180" y="330" width="69" height="72" as="geometry" />
        </mxCell>
        <mxCell id="ejGAQnooB_EAoYQokwm5-526" value="" style="strokeColor=#dddddd;fillColor=#ffffff;shadow=1;strokeWidth=1;rounded=1;absoluteArcSize=1;arcSize=2;fontSize=10;fontColor=#999999;align=left;html=1;" vertex="1" parent="1">
          <mxGeometry x="430" y="536.36" width="560" height="90" as="geometry" />
        </mxCell>
        <mxCell id="ejGAQnooB_EAoYQokwm5-531" value="" style="points=[[0,0,0],[0.25,0,0],[0.5,0,0],[0.75,0,0],[1,0,0],[1,0.25,0],[1,0.5,0],[1,0.75,0],[1,1,0],[0.75,1,0],[0.5,1,0],[0.25,1,0],[0,1,0],[0,0.75,0],[0,0.5,0],[0,0.25,0]];rounded=1;absoluteArcSize=1;arcSize=2;html=1;strokeColor=none;gradientColor=none;shadow=0;dashed=0;fontSize=12;fontColor=#9E9E9E;align=left;verticalAlign=top;spacing=10;spacingTop=-4;whiteSpace=wrap;fillColor=#F3E5F5;" vertex="1" parent="ejGAQnooB_EAoYQokwm5-526">
          <mxGeometry x="-10" y="-16.36" width="570" height="90" as="geometry" />
        </mxCell>
        <mxCell id="ejGAQnooB_EAoYQokwm5-527" value="&lt;font color=&quot;#000000&quot;&gt;Background&lt;/font&gt;" style="dashed=0;connectable=0;html=1;fillColor=#5184F3;strokeColor=none;shape=mxgraph.gcp2.hexIcon;prIcon=process;part=1;labelPosition=right;verticalLabelPosition=middle;align=left;verticalAlign=middle;spacingLeft=5;fontColor=#999999;fontSize=12;rounded=1;" vertex="1" parent="ejGAQnooB_EAoYQokwm5-526">
          <mxGeometry y="0.5" width="44" height="39" relative="1" as="geometry">
            <mxPoint x="5" y="-19.5" as="offset" />
          </mxGeometry>
        </mxCell>
        <mxCell id="ejGAQnooB_EAoYQokwm5-528" value="2 Stream Node&lt;br&gt;16 GB / 4 CPU / 100GB Stroge" style="shape=note2;boundedLbl=1;whiteSpace=wrap;html=1;size=25;verticalAlign=top;align=center;rounded=1;" vertex="1" parent="ejGAQnooB_EAoYQokwm5-526">
          <mxGeometry x="51" y="-10" width="119" height="80" as="geometry" />
        </mxCell>
        <mxCell id="ejGAQnooB_EAoYQokwm5-530" style="edgeStyle=orthogonalEdgeStyle;rounded=1;html=1;labelBackgroundColor=none;startArrow=blockThin;startFill=1;endArrow=blockThin;endFill=1;jettySize=auto;orthogonalLoop=1;strokeColor=#4284F3;strokeWidth=2;fontSize=10;fontColor=#999999;align=center;dashed=0;endSize=4;startSize=4;entryX=0.5;entryY=1;entryDx=0;entryDy=0;exitX=0.5;exitY=0;exitDx=0;exitDy=0;entryPerimeter=0;exitPerimeter=0;" edge="1" parent="1" source="ejGAQnooB_EAoYQokwm5-531" target="9KAmWLg63ur0Nj4LG1KI-530">
          <mxGeometry relative="1" as="geometry">
            <mxPoint x="574" y="480" as="sourcePoint" />
            <mxPoint x="399" y="545" as="targetPoint" />
          </mxGeometry>
        </mxCell>
        <mxCell id="ejGAQnooB_EAoYQokwm5-533" value="" style="edgeStyle=orthogonalEdgeStyle;rounded=1;html=1;labelBackgroundColor=none;startArrow=blockThin;startFill=1;endArrow=blockThin;endFill=1;jettySize=auto;orthogonalLoop=1;strokeColor=#4284F3;strokeWidth=2;fontSize=10;fontColor=#999999;align=center;dashed=0;endSize=4;startSize=4;exitX=1;exitY=0.5;exitDx=0;exitDy=0;exitPerimeter=0;" edge="1" parent="1" source="ejGAQnooB_EAoYQokwm5-516" target="ejGAQnooB_EAoYQokwm5-532">
          <mxGeometry relative="1" as="geometry">
            <mxPoint x="150" y="300" as="sourcePoint" />
            <mxPoint x="190" y="376" as="targetPoint" />
          </mxGeometry>
        </mxCell>
        <mxCell id="ejGAQnooB_EAoYQokwm5-536" value="" style="strokeColor=#dddddd;fillColor=#ffffff;shadow=1;strokeWidth=1;rounded=1;absoluteArcSize=1;arcSize=2;fontSize=10;fontColor=#999999;align=left;html=1;" vertex="1" parent="1">
          <mxGeometry x="780" y="320" width="185.5" height="110" as="geometry" />
        </mxCell>
        <mxCell id="ejGAQnooB_EAoYQokwm5-537" value="" style="points=[[0,0,0],[0.25,0,0],[0.5,0,0],[0.75,0,0],[1,0,0],[1,0.25,0],[1,0.5,0],[1,0.75,0],[1,1,0],[0.75,1,0],[0.5,1,0],[0.25,1,0],[0,1,0],[0,0.75,0],[0,0.5,0],[0,0.25,0]];rounded=1;absoluteArcSize=1;arcSize=2;html=1;strokeColor=none;gradientColor=none;shadow=0;dashed=0;fontSize=12;fontColor=#9E9E9E;align=left;verticalAlign=top;spacing=10;spacingTop=-4;whiteSpace=wrap;fillColor=#F3E5F5;" vertex="1" parent="ejGAQnooB_EAoYQokwm5-536">
          <mxGeometry x="-14.5" y="-20" width="200" height="130" as="geometry" />
        </mxCell>
        <mxCell id="ejGAQnooB_EAoYQokwm5-538" value="&lt;font color=&quot;#000000&quot;&gt;Background&lt;/font&gt;" style="dashed=0;connectable=0;html=1;fillColor=#5184F3;strokeColor=none;shape=mxgraph.gcp2.hexIcon;prIcon=process;part=1;labelPosition=right;verticalLabelPosition=middle;align=left;verticalAlign=middle;spacingLeft=5;fontColor=#999999;fontSize=12;rounded=1;" vertex="1" parent="ejGAQnooB_EAoYQokwm5-536">
          <mxGeometry y="0.5" width="44" height="39" relative="1" as="geometry">
            <mxPoint x="5" y="-19.5" as="offset" />
          </mxGeometry>
        </mxCell>
        <mxCell id="ejGAQnooB_EAoYQokwm5-539" value="2 Search Node&lt;br&gt;16 GB / 4 CPU / 100GB Stroge" style="shape=note2;boundedLbl=1;whiteSpace=wrap;html=1;size=25;verticalAlign=top;align=center;rounded=1;" vertex="1" parent="ejGAQnooB_EAoYQokwm5-536">
          <mxGeometry x="51" width="109" height="80" as="geometry" />
        </mxCell>
        <mxCell id="ejGAQnooB_EAoYQokwm5-540" value="&lt;h3&gt;&lt;font style=&quot;font-size: 15px;&quot;&gt;HazelCast Cluster&lt;/font&gt;&lt;/h3&gt;" style="text;html=1;align=center;verticalAlign=middle;resizable=0;points=[];autosize=1;strokeColor=none;fillColor=none;" vertex="1" parent="1">
          <mxGeometry x="915" y="153" width="150" height="60" as="geometry" />
        </mxCell>
      </root>
    </mxGraphModel>
  </diagram>
</mxfile>
